<svg xmlns="http://www.w3.org/2000/svg" viewBox="0 0 800 1000">
  <defs>
    <linearGradient id="bg" x1="0%" y1="0%" x2="100%" y2="100%">
      <stop offset="0%" stop-color="#243d75"/>
      <stop offset="48%" stop-color="#182a52"/>
      <stop offset="100%" stop-color="#0b1223"/>
    </linearGradient>
    <linearGradient id="moon" x1="0%" y1="0%" x2="100%" y2="100%">
      <stop offset="0%" stop-color="#ffe4a8"/>
      <stop offset="100%" stop-color="#d7b169"/>
    </linearGradient>
  </defs>
  <rect width="800" height="1000" rx="48" fill="url(#bg)"/>
  <circle cx="582" cy="198" r="122" fill="url(#moon)" opacity="0.9"/>
  <circle cx="582" cy="198" r="148" fill="none" stroke="#f4cd84" stroke-opacity="0.24" stroke-width="2"/>
  <circle cx="582" cy="198" r="172" fill="none" stroke="#f4cd84" stroke-opacity="0.12" stroke-width="2"/>
  <path d="M180 830C232 620 350 480 470 432C530 408 612 412 670 454" fill="none" stroke="#9ec6ff" stroke-opacity="0.4" stroke-width="3" stroke-dasharray="10 12"/>
  <g transform="translate(184 248)">
    <path d="M176 96C238 64 308 64 364 102C338 162 320 244 316 326C258 346 188 346 126 324C126 238 144 160 176 96Z" fill="#1d2747" stroke="#f4cd84" stroke-opacity="0.42" stroke-width="4"/>
    <path d="M176 96C234 124 288 130 364 102" fill="none" stroke="#f4cd84" stroke-opacity="0.38" stroke-width="4"/>
    <path d="M150 184H332" stroke="#dce7ff" stroke-opacity="0.28" stroke-width="3"/>
    <path d="M164 214H318" stroke="#dce7ff" stroke-opacity="0.2" stroke-width="3"/>
    <path d="M180 244H304" stroke="#dce7ff" stroke-opacity="0.16" stroke-width="3"/>
    <path d="M242 0C296 38 332 78 350 122C300 150 246 164 190 164C146 164 110 156 72 138C92 92 154 34 242 0Z" fill="#c9d8ff"/>
    <circle cx="182" cy="96" r="16" fill="#0b1223"/>
    <circle cx="304" cy="96" r="16" fill="#0b1223"/>
    <path d="M218 128L242 164L266 128Z" fill="#f4cd84"/>
  </g>
  <g fill="#ffe4a8">
    <circle cx="134" cy="152" r="5"/>
    <circle cx="210" cy="118" r="3"/>
    <circle cx="672" cy="96" r="4"/>
    <circle cx="696" cy="280" r="3"/>
  </g>
  <text x="84" y="884" fill="#f9e7bf" font-size="76" font-family="Georgia, serif" letter-spacing="4">owlpost</text>
  <text x="86" y="936" fill="#b8c7e8" font-size="28" font-family="sans-serif" letter-spacing="3">School letters and slow-burn magic</text>
</svg>
