<svg xmlns="http://www.w3.org/2000/svg" viewBox="0 0 800 1000">
  <defs>
    <linearGradient id="bg" x1="0%" y1="0%" x2="100%" y2="100%">
      <stop offset="0%" stop-color="#315a5c"/>
      <stop offset="50%" stop-color="#214041"/>
      <stop offset="100%" stop-color="#111f25"/>
    </linearGradient>
    <linearGradient id="light" x1="0%" y1="0%" x2="100%" y2="100%">
      <stop offset="0%" stop-color="#ffd8a8"/>
      <stop offset="100%" stop-color="#f2b36d"/>
    </linearGradient>
  </defs>
  <rect width="800" height="1000" rx="48" fill="url(#bg)"/>
  <rect x="118" y="180" width="564" height="458" rx="34" fill="#1a2d2f" stroke="#f5c27d" stroke-opacity="0.28" stroke-width="4"/>
  <rect x="154" y="216" width="492" height="386" rx="26" fill="#274548"/>
  <rect x="182" y="252" width="436" height="318" rx="22" fill="#385f63"/>
  <circle cx="252" cy="376" r="44" fill="url(#light)"/>
  <circle cx="360" cy="346" r="28" fill="#f8deb5"/>
  <circle cx="438" cy="394" r="36" fill="#ffd4b2"/>
  <circle cx="538" cy="340" r="52" fill="#f4c88b"/>
  <path d="M340 520C374 470 430 468 464 520" fill="none" stroke="#ffd7ae" stroke-width="16" stroke-linecap="round"/>
  <circle cx="400" cy="486" r="52" fill="#ffd6ac"/>
  <circle cx="370" cy="468" r="11" fill="#3a2c21"/>
  <circle cx="430" cy="468" r="11" fill="#3a2c21"/>
  <path d="M400 490L414 514H386Z" fill="#3a2c21"/>
  <path d="M0 766C120 704 244 672 400 672C556 672 680 704 800 766V1000H0Z" fill="#0d171b"/>
  <text x="76" y="884" fill="#ffe6bf" font-size="76" font-family="Georgia, serif" letter-spacing="4">Pet Shop</text>
  <text x="80" y="936" fill="#d0d7cf" font-size="28" font-family="sans-serif" letter-spacing="3">Warm management and fluffy daily stories</text>
</svg>
