<svg xmlns="http://www.w3.org/2000/svg" viewBox="0 0 800 1000">
  <defs>
    <linearGradient id="bg" x1="0%" y1="0%" x2="100%" y2="100%">
      <stop offset="0%" stop-color="#1e253a"/>
      <stop offset="55%" stop-color="#101725"/>
      <stop offset="100%" stop-color="#090d14"/>
    </linearGradient>
    <linearGradient id="track" x1="0%" y1="0%" x2="100%" y2="100%">
      <stop offset="0%" stop-color="#f7d38c"/>
      <stop offset="100%" stop-color="#92c7ff"/>
    </linearGradient>
  </defs>
  <rect width="800" height="1000" rx="48" fill="url(#bg)"/>
  <path d="M126 756C110 604 166 476 272 438C364 406 430 470 456 552C474 608 508 640 568 640C644 640 704 584 706 474" fill="none" stroke="url(#track)" stroke-width="30" stroke-linecap="round"/>
  <path d="M706 474C708 354 632 266 530 266C448 266 388 318 356 400" fill="none" stroke="#f2f5fb" stroke-opacity="0.2" stroke-width="18" stroke-linecap="round"/>
  <path d="M164 252H322V410H164Z" fill="#f6d189"/>
  <path d="M164 252L243 330L322 252Z" fill="#9cc9ff"/>
  <path d="M478 162H648V332H478Z" fill="none" stroke="#6e7e9d" stroke-width="6"/>
  <path d="M478 162H563V247H478Z" fill="#f4f5fa"/>
  <path d="M563 162H648V247H563Z" fill="#141821"/>
  <path d="M478 247H563V332H478Z" fill="#141821"/>
  <path d="M563 247H648V332H563Z" fill="#f4f5fa"/>
  <circle cx="194" cy="728" r="12" fill="#f6d189"/>
  <circle cx="244" cy="676" r="6" fill="#9cc9ff"/>
  <circle cx="662" cy="544" r="8" fill="#f6d189"/>
  <text x="74" y="884" fill="#fbe4b6" font-size="72" font-family="Georgia, serif" letter-spacing="4">Pit Wall</text>
  <text x="78" y="936" fill="#c4ccd9" font-size="28" font-family="sans-serif" letter-spacing="3">A future F1-themed interactive project slot</text>
</svg>
